<svg xmlns="http://www.w3.org/2000/svg" width="360.76" height="374.367" viewBox="0 0 360.76 374.367">
  <g id="HEALTHY_SCOOPS_-_ELEMENTOS_GRÁFICOS-21" data-name="HEALTHY SCOOPS - ELEMENTOS GRÁFICOS-21" transform="translate(-59.091 -40.962)">
    <path id="Trazado_781" data-name="Trazado 781" d="M288.624,63.684C253.7,28.7,191.469,38.118,154.115,70.491S98.126,151.217,80.868,197.536C64.649,241.073,48.539,290.31,68.036,332.477c11.59,25.063,34.512,43.472,59.567,55.074s52.414,17.153,79.484,22.61c15.641,3.154,31.567,6.324,47.445,4.752,13.274-1.313,26.02-5.908,38.176-11.4,46.736-21.1,87.447-56.93,110.511-102.732s18.676-98.857,7.6-148.924C391.495,64.486,249.983,35,221.273,41.932" transform="translate(0 0)" fill="#ed6e16"/>
  </g>
</svg>
