<svg xmlns="http://www.w3.org/2000/svg" width="225.607" height="234.117" viewBox="0 0 225.607 234.117">
  <g id="circle" transform="translate(-59.091 -40.962)">
    <path id="Trazado_781" data-name="Trazado 781" d="M202.633,55.171c-21.838-21.878-60.757-15.988-84.118,4.257S83.5,109.912,72.709,138.878C62.567,166.1,52.492,196.9,64.685,223.266c7.248,15.674,21.582,27.186,37.251,34.441s32.778,10.727,49.707,14.14c9.781,1.973,19.741,3.955,29.67,2.972,8.3-.821,16.272-3.694,23.874-7.126,29.227-13.194,54.687-35.6,69.11-64.245s11.679-61.822,4.752-93.132C266.965,55.673,178.468,37.236,160.515,41.569" transform="translate(0 0)" fill="#ed6e16"/>
  </g>
</svg>
