<svg xmlns="http://www.w3.org/2000/svg" xmlns:xlink="http://www.w3.org/1999/xlink" width="99.875" height="99.875" viewBox="0 0 99.875 99.875">
  <defs>
    <clipPath id="clip-path">
      <rect id="Rectángulo_48" data-name="Rectángulo 48" width="45.654" height="95.591" fill="none" stroke="#6ca63b" stroke-width="1"/>
    </clipPath>
  </defs>
  <g id="Grupo_213" data-name="Grupo 213" transform="translate(-2147.483 212.594) rotate(-45)">
    <g id="Grupo_195" data-name="Grupo 195" transform="translate(1646 1391)">
      <g id="Grupo_194" data-name="Grupo 194" transform="translate(0 0)" clip-path="url(#clip-path)">
        <path id="Trazado_822" data-name="Trazado 822" d="M24.954,11.873a2.18,2.18,0,0,1-.781.43c-.177.062-.491.191-.892.353C19.46,14.2,17.229,14.907,16.386,14.2c-.563-.472-.62-1.846-.613-4.654A17.36,17.36,0,0,0,15.7,7.177l-.095-.41a5.916,5.916,0,0,1,.006-4.008,5.767,5.767,0,0,1,1.94-1.98A3.137,3.137,0,0,1,19.424,0c1.324.03,2.045,1.31,2.473,2.27,1.193,2.679,2.3,5.434,3.295,8.193a1.5,1.5,0,0,1,.111.783,1.1,1.1,0,0,1-.349.627M17.1,13.37c.352.144,1.653-.051,5.777-1.722.422-.17.754-.3.941-.37.365-.128.416-.215.421-.224a1.128,1.128,0,0,0-.065-.222c-.984-2.733-2.082-5.464-3.265-8.118C20.422,1.631,19.93,1.1,19.4,1.086a2.235,2.235,0,0,0-1.211.571,4.886,4.886,0,0,0-1.6,1.584,5.067,5.067,0,0,0,.08,3.281l.095.418a15.259,15.259,0,0,1,.1,2.608A16.324,16.324,0,0,0,17.1,13.37" transform="translate(7.66 0.001)" fill="#6ca63b" stroke="#6ca63b" stroke-width="1"/>
        <path id="Trazado_823" data-name="Trazado 823" d="M31.092,85.367a28.028,28.028,0,0,1-12.215,6.684,15.725,15.725,0,0,1-6.131.5C6.172,91.6,1.923,84.988.631,78.86A29.075,29.075,0,0,1,.386,68.108c1.029-6.286,4.075-12,7.021-17.524,1.385-2.6,2.819-5.287,4.019-7.994a60.411,60.411,0,0,0,5.141-25.362l0-.24a10.677,10.677,0,0,1,.3-3.389,5.766,5.766,0,0,1,3.3-3.576,5.037,5.037,0,0,1,4.3.156l-.512.959a3.91,3.91,0,0,0-3.376-.111A4.672,4.672,0,0,0,17.9,13.918a9.861,9.861,0,0,0-.254,3.048l0,.242A61.509,61.509,0,0,1,12.419,43.03C11.2,45.773,9.76,48.478,8.366,51.1c-2.9,5.448-5.907,11.08-6.908,17.189a28.023,28.023,0,0,0,.236,10.352C2.909,84.394,6.847,90.6,12.9,91.471A14.664,14.664,0,0,0,18.612,91,26.94,26.94,0,0,0,33.556,80.987c5.039-6.782,6.629-15.563,8.03-23.31,1.363-7.53,2.772-15.316,2.96-23.182.207-8.7-1.184-16.324-4.135-22.649C39.64,10.19,38.517,8.177,36.675,7.3a3.154,3.154,0,0,0-2.607-.191,2.185,2.185,0,0,0-1.191,1.457l-1.043-.3a3.238,3.238,0,0,1,1.789-2.145,4.227,4.227,0,0,1,3.519.2c2.154,1.029,3.4,3.25,4.253,5.069,3.023,6.478,4.449,14.261,4.237,23.134-.189,7.951-1.608,15.78-2.978,23.349-1.423,7.865-3.036,16.779-8.227,23.765a27.756,27.756,0,0,1-3.335,3.732" transform="translate(0 2.924)" fill="#6ca63b" stroke="#6ca63b" stroke-width="1"/>
        <path id="Trazado_824" data-name="Trazado 824" d="M21.625,12.338l-1.085.038A22.116,22.116,0,0,0,17.065,1.217l.93-.562a23.13,23.13,0,0,1,3.63,11.683" transform="translate(8.574 0.329)" fill="#6ca63b" stroke="#6ca63b" stroke-width="1"/>
        <path id="Trazado_825" data-name="Trazado 825" d="M4.869,87.333l-1-.421c4.788-11.4,8.217-24.094,10.939-35.006L19.628,32.6a65.05,65.05,0,0,0,1.68-8.233,62.621,62.621,0,0,0,.209-15.38l1.077-.138a63.762,63.762,0,0,1-.207,15.642,65.643,65.643,0,0,1-1.705,8.373l-4.82,19.307C13.127,63.12,9.685,75.862,4.869,87.333" transform="translate(1.943 4.445)" fill="#6ca63b" stroke="#6ca63b" stroke-width="1"/>
        <path id="Trazado_826" data-name="Trazado 826" d="M10.441,91.2l-.96-.508C19.8,71.223,23.972,48,26.953,25.8a33.848,33.848,0,0,0,.41-8.8l-.086-.678c-.334-2.691-.711-5.744-2.718-7.3l.666-.858C27.59,10,28,13.286,28.357,16.187l.084.673a34.749,34.749,0,0,1-.413,9.081c-2.993,22.3-7.194,45.639-17.587,65.26" transform="translate(4.763 4.099)" fill="#6ca63b" stroke="#6ca63b" stroke-width="1"/>
        <path id="Trazado_827" data-name="Trazado 827" d="M16.662,89.143l-.9-.6C24.185,75.945,27.06,60.85,29.6,47.533c1.387-7.282,2.5-13.854,2.139-20.527A31.6,31.6,0,0,0,24.111,7.913l.8-.732A32.706,32.706,0,0,1,32.82,26.947c.373,6.8-.756,13.436-2.156,20.789-2.557,13.42-5.454,28.63-14,41.408" transform="translate(7.917 3.608)" fill="#6ca63b" stroke="#6ca63b" stroke-width="1"/>
      </g>
    </g>
  </g>
</svg>
